<svg width="36" height="36" viewBox="0 0 36 36" fill="none" xmlns="http://www.w3.org/2000/svg">
<path d="M23.8333 11.3334H23C22.3369 11.3334 21.7012 11.597 21.2324 12.0658C20.7635 12.5347 20.5 13.1704 20.5 13.8334V14.7506C20.7722 14.695 21.0513 14.6667 21.3333 14.6667C21.9963 14.6667 22.632 14.4032 23.1009 13.9343C23.5697 13.4655 23.8333 12.8298 23.8333 12.1667V11.3334ZM25.5 12.1667C25.5 13.2718 25.0607 14.3313 24.2793 15.1127C23.4979 15.8941 22.4384 16.3334 21.3333 16.3334C20.6703 16.3334 20.0346 16.597 19.5657 17.0658C19.0969 17.5347 18.8333 18.1704 18.8333 18.8334C18.8333 19.518 18.9986 20.0285 19.2068 20.6531C19.4153 21.2784 19.6666 22.0181 19.6666 23.0001C19.6666 24.0819 19.3155 25.1343 18.6665 25.9998C18.3904 26.3679 17.8685 26.4426 17.5003 26.1666C17.1321 25.8905 17.0574 25.3686 17.3335 25.0004C17.7662 24.4234 18 23.7213 18 23.0001C18 22.3155 17.8346 21.805 17.6264 21.1804C17.418 20.5551 17.1666 19.8154 17.1666 18.8334C17.1666 17.7283 17.6059 16.6689 18.3873 15.8875C18.5275 15.7473 18.6766 15.6184 18.8333 15.5009V13.8334C18.8333 12.7283 19.2726 11.6689 20.054 10.8875C20.8354 10.106 21.8949 9.66675 23 9.66675H24.25C24.5815 9.66675 24.8993 9.79854 25.1337 10.033C25.3682 10.2674 25.5 10.5852 25.5 10.9167V12.1667Z" fill="#8A8A8A"/>
<path d="M13.3841 13.8537C14.3089 13.7703 15.2391 13.9462 16.0697 14.3615C16.9 14.7768 17.5982 15.415 18.0863 16.2048C18.5744 16.9946 18.8333 17.9048 18.8333 18.8333C18.8333 19.0956 18.7095 19.3425 18.4997 19.4999C17.7569 20.0569 16.8739 20.3963 15.9492 20.4797C15.0244 20.5631 14.0942 20.3871 13.2637 19.9719C12.4333 19.5566 11.7352 18.9183 11.2471 18.1286C10.7589 17.3387 10.5 16.4286 10.5 15.5C10.5 15.2377 10.6238 14.9909 10.8337 14.8335C11.5764 14.2765 12.4594 13.9371 13.3841 13.8537ZM13.5339 15.5138C13.0615 15.5565 12.6054 15.699 12.1951 15.9305C12.256 16.3978 12.4153 16.8485 12.6647 17.2521C12.9902 17.7787 13.4554 18.2049 14.0091 18.4818C14.5628 18.7586 15.1829 18.8751 15.7995 18.8195C16.2718 18.7769 16.7272 18.6334 17.1374 18.402C17.0764 17.9351 16.9179 17.4846 16.6686 17.0812C16.3432 16.5546 15.8779 16.1284 15.3242 15.8516C14.7705 15.5747 14.1504 15.4583 13.5339 15.5138Z" fill="#8A8A8A"/>
<path d="M23.8334 24.6667C24.2936 24.6667 24.6667 25.0398 24.6667 25.5001C24.6667 25.9603 24.2936 26.3334 23.8334 26.3334H12.1667C11.7065 26.3334 11.3334 25.9603 11.3334 25.5001C11.3334 25.0398 11.7065 24.6667 12.1667 24.6667H23.8334Z" fill="#8A8A8A"/>
</svg>
