<svg width="20" height="24" viewBox="0 0 20 24" fill="none" xmlns="http://www.w3.org/2000/svg">
<path d="M12.6979 20.3659C12.6979 18.3587 14.3325 16.7316 16.349 16.7316C18.3655 16.7316 20.0001 18.3587 20.0001 20.3659C20.0001 22.373 18.3655 24.0002 16.349 24.0002C14.3325 24.0002 12.6979 22.373 12.6979 20.3659Z" fill="#8A6BFF"/>
<path d="M10.2318 3.68276C10.7337 4.02902 11.4216 3.91276 11.7806 3.421L13.8782 0.547558C14.2429 0.0479415 14.9455 -0.0627884 15.4474 0.300233L19.5374 3.25824C20.0393 3.62126 20.1506 4.32057 19.7859 4.8202L6.12254 23.5391C5.75784 24.0387 5.05528 24.1495 4.55333 23.7865L0.463421 20.8287C-0.0385354 20.4657 -0.149813 19.7664 0.214874 19.2667L6.16661 11.1125C6.53706 10.605 6.41566 9.89344 5.89764 9.5361L1.02292 6.17338C0.51295 5.82159 0.386047 5.12491 0.73947 4.6173L3.61902 0.481501C3.97244 -0.0261086 4.67236 -0.152421 5.18232 0.199375L10.2318 3.68276Z" fill="#8A6BFF"/>
<path d="M12.8862 14.258L5.02222 12.7029L6.18977 11.1413C6.4947 10.7334 6.48484 10.1721 6.16577 9.77514L6.00521 9.57538L12.8862 14.258Z" fill="#6F4BEF"/>
</svg>
